<svg width="655" height="346" viewBox="0 0 655 346" fill="none" xmlns="http://www.w3.org/2000/svg">
<g clip-path="url(#clip0)">
<path fill-rule="evenodd" clip-rule="evenodd" d="M304.749 144.442C307.114 143.599 309.602 142.479 311.521 140.858C313.8 138.933 314.727 136.452 315.349 133.842C316.148 130.488 316.468 126.915 317.437 123.556C317.795 122.308 318.486 121.837 318.782 121.627C319.531 121.099 320.288 120.957 321 121.01C321.844 121.072 323.003 121.391 323.766 122.806C323.874 123.008 324.016 123.317 324.111 123.739C324.18 124.049 324.225 125.018 324.298 125.418C324.482 126.401 324.635 127.385 324.779 128.375C325.259 131.667 325.535 134.464 327.05 137.489C329.106 141.596 331.167 144.109 333.961 145.222C336.662 146.298 339.892 146.096 344.02 145.252C344.412 145.157 344.801 145.075 345.186 145.009C347.005 144.691 348.745 145.885 349.102 147.698C349.46 149.509 348.303 151.275 346.5 151.673C346.123 151.756 345.752 151.835 345.385 151.907C339.808 153.287 333.352 158.215 329.6 162.53C328.443 163.86 326.75 167.58 325.023 169.952C323.748 171.703 322.315 172.857 321.113 173.264C320.307 173.539 319.627 173.497 319.066 173.358C318.251 173.157 317.574 172.715 317.055 172.013C316.772 171.628 316.51 171.113 316.385 170.455C316.325 170.139 316.318 169.334 316.32 168.97C315.968 167.759 315.537 166.577 315.223 165.355C314.474 162.44 313.005 160.595 311.26 158.157C309.628 155.875 307.875 154.441 305.305 153.297C304.971 153.215 302.273 152.555 301.321 152.176C299.929 151.62 299.266 150.689 299.025 150.188C298.616 149.337 298.574 148.593 298.656 147.974C298.777 147.059 299.187 146.276 299.916 145.645C300.367 145.252 301.041 144.87 301.943 144.684C302.64 144.538 304.49 144.454 304.749 144.442ZM320.575 139.691C320.7 139.969 320.833 140.249 320.974 140.532C323.986 146.547 327.353 149.905 331.446 151.534L331.584 151.587C328.845 153.62 326.367 155.893 324.472 158.071C323.692 158.968 322.659 160.831 321.544 162.742C320.53 159.446 318.872 157.117 316.787 154.202C315.194 151.977 313.526 150.303 311.475 148.939C313.066 148.122 314.584 147.165 315.907 146.048C318.108 144.188 319.564 142.032 320.575 139.691Z" fill="#FFF7B4"/>
</g>
<g clip-path="url(#clip1)">
<path fill-rule="evenodd" clip-rule="evenodd" d="M6.74934 23.4418C9.11396 22.5993 11.6023 21.4794 13.5212 19.8582C15.8002 17.9325 16.727 15.4524 17.3494 12.8418C18.1485 9.48789 18.4678 5.91511 19.4367 2.55572C19.7955 1.30818 20.4859 0.83661 20.7822 0.627328C21.531 0.0986869 22.2879 -0.0426185 23 0.0103815C23.8439 0.0715353 25.0031 0.390872 25.7655 1.80556C25.8742 2.00805 26.0155 2.31656 26.1107 2.7392C26.18 3.04904 26.2248 4.01797 26.2982 4.41751C26.4817 5.40141 26.6352 6.38534 26.7793 7.37467C27.259 10.6675 27.5349 13.4642 29.0502 16.4893C31.1063 20.5961 33.1665 23.1088 35.9606 24.2218C38.6622 25.2981 41.8925 25.0957 46.0197 24.2518C46.4124 24.1567 46.801 24.0751 47.1856 24.0085C49.0053 23.6905 50.7448 24.885 51.1022 26.6979C51.4596 28.5094 50.3032 30.2747 48.4998 30.6729C48.1234 30.7558 47.7524 30.8346 47.3854 30.9066C41.8082 32.2874 35.3517 37.215 31.5996 41.5298C30.4431 42.8602 28.7498 46.5797 27.0226 48.9525C25.7478 50.7028 24.3155 51.8566 23.1128 52.2643C22.3069 52.5388 21.6274 52.4967 21.0662 52.3581C20.2508 52.157 19.5741 51.7152 19.0549 51.0127C18.7723 50.6281 18.5099 50.113 18.3849 49.4553C18.3251 49.1386 18.3183 48.3342 18.3197 47.97C17.9677 46.7591 17.5369 45.5768 17.223 44.3551C16.4742 41.4401 15.0051 39.5946 13.2602 37.1566C11.6281 34.8749 9.87506 33.4411 7.30524 32.2969C6.97094 32.2154 4.27336 31.5549 3.32072 31.1757C1.92913 30.6199 1.26592 29.689 1.02538 29.1875C0.616327 28.3368 0.574236 27.5935 0.655775 26.9738C0.776723 26.0592 1.18714 25.2765 1.91555 24.6445C2.36673 24.2518 3.04078 23.8699 3.94314 23.6837C4.6403 23.5383 6.48978 23.4541 6.74934 23.4418ZM22.5746 18.6908C22.6997 18.9694 22.8328 19.2494 22.9742 19.532C25.9857 25.5469 29.3532 28.9049 33.4464 30.5343L33.5837 30.5873C30.8454 32.6203 28.3666 34.8925 26.4721 37.071C25.6921 37.9679 24.6593 39.8311 23.5436 41.7418C22.5298 38.4463 20.8718 36.117 18.7872 33.202C17.1945 30.9773 15.5256 29.3031 13.475 27.9387C15.0663 27.122 16.5843 26.1652 17.9066 25.0481C20.1081 23.1877 21.5636 21.0323 22.5746 18.6908Z" fill="#FFF7B4"/>
</g>
<g clip-path="url(#clip2)">
<path fill-rule="evenodd" clip-rule="evenodd" d="M504.749 316.442C507.114 315.599 509.602 314.479 511.521 312.858C513.8 310.933 514.727 308.452 515.349 305.842C516.148 302.488 516.468 298.915 517.437 295.556C517.795 294.308 518.486 293.837 518.782 293.627C519.531 293.099 520.288 292.957 521 293.01C521.844 293.072 523.003 293.391 523.766 294.806C523.874 295.008 524.016 295.317 524.111 295.739C524.18 296.049 524.225 297.018 524.298 297.418C524.482 298.401 524.635 299.385 524.779 300.375C525.259 303.667 525.535 306.464 527.05 309.489C529.106 313.596 531.167 316.109 533.961 317.222C536.662 318.298 539.892 318.096 544.02 317.252C544.412 317.157 544.801 317.075 545.186 317.009C547.005 316.691 548.745 317.885 549.102 319.698C549.46 321.509 548.303 323.275 546.5 323.673C546.123 323.756 545.752 323.835 545.385 323.907C539.808 325.287 533.352 330.215 529.6 334.53C528.443 335.86 526.75 339.58 525.023 341.952C523.748 343.703 522.315 344.857 521.113 345.264C520.307 345.539 519.627 345.497 519.066 345.358C518.251 345.157 517.574 344.715 517.055 344.013C516.772 343.628 516.51 343.113 516.385 342.455C516.325 342.139 516.318 341.334 516.32 340.97C515.968 339.759 515.537 338.577 515.223 337.355C514.474 334.44 513.005 332.595 511.26 330.157C509.628 327.875 507.875 326.441 505.305 325.297C504.971 325.215 502.273 324.555 501.321 324.176C499.929 323.62 499.266 322.689 499.025 322.188C498.616 321.337 498.574 320.594 498.656 319.974C498.777 319.059 499.187 318.276 499.916 317.645C500.367 317.252 501.041 316.87 501.943 316.684C502.64 316.538 504.49 316.454 504.749 316.442ZM520.575 311.691C520.7 311.969 520.833 312.249 520.974 312.532C523.986 318.547 527.353 321.905 531.446 323.534L531.584 323.587C528.845 325.62 526.367 327.893 524.472 330.071C523.692 330.968 522.659 332.831 521.544 334.742C520.53 331.446 518.872 329.117 516.787 326.202C515.194 323.977 513.526 322.303 511.475 320.939C513.066 320.122 514.584 319.165 515.907 318.048C518.108 316.188 519.564 314.032 520.575 311.691Z" fill="#FFF7B4"/>
</g>
<g clip-path="url(#clip3)">
<path fill-rule="evenodd" clip-rule="evenodd" d="M608.749 50.4418C611.114 49.5993 613.602 48.4794 615.521 46.8582C617.8 44.9325 618.727 42.4524 619.349 39.8418C620.148 36.4879 620.468 32.9151 621.437 29.5557C621.795 28.3082 622.486 27.8366 622.782 27.6273C623.531 27.0987 624.288 26.9574 625 27.0104C625.844 27.0715 627.003 27.3909 627.766 28.8056C627.874 29.0081 628.016 29.3166 628.111 29.7392C628.18 30.049 628.225 31.018 628.298 31.4175C628.482 32.4014 628.635 33.3853 628.779 34.3747C629.259 37.6675 629.535 40.4642 631.05 43.4893C633.106 47.5961 635.167 50.1088 637.961 51.2218C640.662 52.2981 643.892 52.0957 648.02 51.2518C648.412 51.1567 648.801 51.0751 649.186 51.0085C651.005 50.6905 652.745 51.885 653.102 53.6979C653.46 55.5094 652.303 57.2747 650.5 57.6729C650.123 57.7558 649.752 57.8346 649.385 57.9066C643.808 59.2874 637.352 64.215 633.6 68.5298C632.443 69.8602 630.75 73.5797 629.023 75.9525C627.748 77.7028 626.315 78.8566 625.113 79.2643C624.307 79.5388 623.627 79.4967 623.066 79.3581C622.251 79.157 621.574 78.7152 621.055 78.0127C620.772 77.6281 620.51 77.113 620.385 76.4553C620.325 76.1386 620.318 75.3342 620.32 74.97C619.968 73.7591 619.537 72.5768 619.223 71.3551C618.474 68.4401 617.005 66.5946 615.26 64.1566C613.628 61.8749 611.875 60.4411 609.305 59.2969C608.971 59.2154 606.273 58.5549 605.321 58.1757C603.929 57.6199 603.266 56.689 603.025 56.1875C602.616 55.3368 602.574 54.5935 602.656 53.9738C602.777 53.0592 603.187 52.2765 603.916 51.6445C604.367 51.2518 605.041 50.8699 605.943 50.6837C606.64 50.5383 608.49 50.4541 608.749 50.4418ZM624.575 45.6908C624.7 45.9694 624.833 46.2494 624.974 46.532C627.986 52.5469 631.353 55.9049 635.446 57.5343L635.584 57.5873C632.845 59.6203 630.367 61.8925 628.472 64.071C627.692 64.9679 626.659 66.8311 625.544 68.7418C624.53 65.4463 622.872 63.117 620.787 60.202C619.194 57.9773 617.526 56.3031 615.475 54.9387C617.066 54.122 618.584 53.1652 619.907 52.0481C622.108 50.1877 623.564 48.0323 624.575 45.6908Z" fill="#FFF7B4"/>
</g>
<defs>
<clipPath id="clip0">
<rect width="53" height="53" fill="white" transform="translate(298 121)"/>
</clipPath>
<clipPath id="clip1">
<rect width="53" height="53" fill="white"/>
</clipPath>
<clipPath id="clip2">
<rect width="53" height="53" fill="white" transform="translate(498 293)"/>
</clipPath>
<clipPath id="clip3">
<rect width="53" height="53" fill="white" transform="translate(602 27)"/>
</clipPath>
</defs>
</svg>
