<svg width="935" height="560" viewBox="0 0 935 560" fill="none" xmlns="http://www.w3.org/2000/svg">
<path fill-rule="evenodd" clip-rule="evenodd" d="M930.808 234.929C944.995 292.097 852.271 329.964 807.273 375.236C770.833 411.899 745.995 466.324 690.071 477.134C628.512 489.034 570.59 449.97 511.184 432.473C477.305 422.495 449.436 389.212 414.305 395.914C341.001 409.899 296.228 485.987 221.079 487.821C154.996 489.433 91.1539 449.44 53.6419 404.714C15.8103 359.608 -15.5692 292.774 17.305 244.862C56.8297 187.257 169.785 198.723 226.91 152.188C259.334 125.775 217.537 49.8139 262.675 44.9796C327.215 38.0674 366.805 105.979 424.164 131.062C441.745 138.751 463.513 147.166 481.965 140.877C534.861 122.849 566.119 67.3973 623.076 63.2686C670.463 59.8335 705.09 99.9293 744.393 121.853C809.102 157.95 915.133 171.767 930.808 234.929Z" fill="#FFF7B4"/>
<g clip-path="url(#clip0)">
<path fill-rule="evenodd" clip-rule="evenodd" d="M381.749 530.442C384.114 529.599 386.602 528.479 388.521 526.858C390.8 524.933 391.727 522.452 392.349 519.842C393.148 516.488 393.468 512.915 394.437 509.556C394.795 508.308 395.486 507.837 395.782 507.627C396.531 507.099 397.288 506.957 398 507.01C398.844 507.072 400.003 507.391 400.766 508.806C400.874 509.008 401.016 509.317 401.111 509.739C401.18 510.049 401.225 511.018 401.298 511.418C401.482 512.401 401.635 513.385 401.779 514.375C402.259 517.667 402.535 520.464 404.05 523.489C406.106 527.596 408.167 530.109 410.961 531.222C413.662 532.298 416.892 532.096 421.02 531.252C421.412 531.157 421.801 531.075 422.186 531.009C424.005 530.691 425.745 531.885 426.102 533.698C426.46 535.509 425.303 537.275 423.5 537.673C423.123 537.756 422.752 537.835 422.385 537.907C416.808 539.287 410.352 544.215 406.6 548.53C405.443 549.86 403.75 553.58 402.023 555.952C400.748 557.703 399.315 558.857 398.113 559.264C397.307 559.539 396.627 559.497 396.066 559.358C395.251 559.157 394.574 558.715 394.055 558.013C393.772 557.628 393.51 557.113 393.385 556.455C393.325 556.139 393.318 555.334 393.32 554.97C392.968 553.759 392.537 552.577 392.223 551.355C391.474 548.44 390.005 546.595 388.26 544.157C386.628 541.875 384.875 540.441 382.305 539.297C381.971 539.215 379.273 538.555 378.321 538.176C376.929 537.62 376.266 536.689 376.025 536.188C375.616 535.337 375.574 534.594 375.656 533.974C375.777 533.059 376.187 532.276 376.916 531.645C377.367 531.252 378.041 530.87 378.943 530.684C379.64 530.538 381.49 530.454 381.749 530.442ZM397.575 525.691C397.7 525.969 397.833 526.249 397.974 526.532C400.986 532.547 404.353 535.905 408.446 537.534L408.584 537.587C405.845 539.62 403.367 541.893 401.472 544.071C400.692 544.968 399.659 546.831 398.544 548.742C397.53 545.446 395.872 543.117 393.787 540.202C392.194 537.977 390.526 536.303 388.475 534.939C390.066 534.122 391.584 533.165 392.907 532.048C395.108 530.188 396.564 528.032 397.575 525.691Z" fill="#FFF7B4"/>
</g>
<g clip-path="url(#clip1)">
<path fill-rule="evenodd" clip-rule="evenodd" d="M776.749 23.4418C779.114 22.5993 781.602 21.4794 783.521 19.8582C785.8 17.9325 786.727 15.4524 787.349 12.8419C788.148 9.48791 788.468 5.91512 789.437 2.55574C789.795 1.3082 790.486 0.836625 790.782 0.627343C791.531 0.0987022 792.288 -0.0426033 793 0.0103967C793.844 0.0715506 795.003 0.390888 795.766 1.80558C795.874 2.00807 796.016 2.31657 796.111 2.73921C796.18 3.04906 796.225 4.01799 796.298 4.41752C796.482 5.40142 796.635 6.38535 796.779 7.37469C797.259 10.6675 797.535 13.4642 799.05 16.4893C801.106 20.5961 803.167 23.1089 805.961 24.2219C808.662 25.2982 811.892 25.0957 816.02 24.2518C816.412 24.1567 816.801 24.0751 817.186 24.0085C819.005 23.6905 820.745 24.8851 821.102 26.6979C821.46 28.5095 820.303 30.2747 818.5 30.6729C818.123 30.7558 817.752 30.8346 817.385 30.9067C811.808 32.2874 805.352 37.215 801.6 41.5298C800.443 42.8602 798.75 46.5797 797.023 48.9525C795.748 50.7028 794.315 51.8566 793.113 52.2643C792.307 52.5388 791.627 52.4967 791.066 52.3581C790.251 52.157 789.574 51.7153 789.055 51.0127C788.772 50.6281 788.51 50.113 788.385 49.4553C788.325 49.1386 788.318 48.3342 788.32 47.97C787.968 46.7591 787.537 45.5768 787.223 44.3551C786.474 41.4401 785.005 39.5946 783.26 37.1566C781.628 34.8749 779.875 33.4412 777.305 32.2969C776.971 32.2154 774.273 31.5549 773.321 31.1757C771.929 30.6199 771.266 29.689 771.025 29.1875C770.616 28.3368 770.574 27.5935 770.656 26.9738C770.777 26.0592 771.187 25.2765 771.916 24.6445C772.367 24.2518 773.041 23.8699 773.943 23.6837C774.64 23.5383 776.49 23.4541 776.749 23.4418ZM792.575 18.6908C792.7 18.9694 792.833 19.2494 792.974 19.5321C795.986 25.5469 799.353 28.9049 803.446 30.5343L803.584 30.5873C800.845 32.6203 798.367 34.8925 796.472 37.071C795.692 37.9679 794.659 39.8311 793.544 41.7418C792.53 38.4463 790.872 36.117 788.787 33.202C787.194 30.9774 785.526 29.3031 783.475 27.9387C785.066 27.122 786.584 26.1652 787.907 25.0482C790.108 23.1877 791.564 21.0323 792.575 18.6908Z" fill="#FFF7B4"/>
</g>
<g clip-path="url(#clip2)">
<path fill-rule="evenodd" clip-rule="evenodd" d="M876.749 418.442C879.114 417.599 881.602 416.479 883.521 414.858C885.8 412.933 886.727 410.452 887.349 407.842C888.148 404.488 888.468 400.915 889.437 397.556C889.795 396.308 890.486 395.837 890.782 395.627C891.531 395.099 892.288 394.957 893 395.01C893.844 395.072 895.003 395.391 895.766 396.806C895.874 397.008 896.016 397.317 896.111 397.739C896.18 398.049 896.225 399.018 896.298 399.418C896.482 400.401 896.635 401.385 896.779 402.375C897.259 405.667 897.535 408.464 899.05 411.489C901.106 415.596 903.167 418.109 905.961 419.222C908.662 420.298 911.892 420.096 916.02 419.252C916.412 419.157 916.801 419.075 917.186 419.009C919.005 418.691 920.745 419.885 921.102 421.698C921.46 423.509 920.303 425.275 918.5 425.673C918.123 425.756 917.752 425.835 917.385 425.907C911.808 427.287 905.352 432.215 901.6 436.53C900.443 437.86 898.75 441.58 897.023 443.952C895.748 445.703 894.315 446.857 893.113 447.264C892.307 447.539 891.627 447.497 891.066 447.358C890.251 447.157 889.574 446.715 889.055 446.013C888.772 445.628 888.51 445.113 888.385 444.455C888.325 444.139 888.318 443.334 888.32 442.97C887.968 441.759 887.537 440.577 887.223 439.355C886.474 436.44 885.005 434.595 883.26 432.157C881.628 429.875 879.875 428.441 877.305 427.297C876.971 427.215 874.273 426.555 873.321 426.176C871.929 425.62 871.266 424.689 871.025 424.188C870.616 423.337 870.574 422.594 870.656 421.974C870.777 421.059 871.187 420.276 871.916 419.645C872.367 419.252 873.041 418.87 873.943 418.684C874.64 418.538 876.49 418.454 876.749 418.442ZM892.575 413.691C892.7 413.969 892.833 414.249 892.974 414.532C895.986 420.547 899.353 423.905 903.446 425.534L903.584 425.587C900.845 427.62 898.367 429.893 896.472 432.071C895.692 432.968 894.659 434.831 893.544 436.742C892.53 433.446 890.872 431.117 888.787 428.202C887.194 425.977 885.526 424.303 883.475 422.939C885.066 422.122 886.584 421.165 887.907 420.048C890.108 418.188 891.564 416.032 892.575 413.691Z" fill="#FFF7B4"/>
</g>
<defs>
<clipPath id="clip0">
<rect width="53" height="53" fill="white" transform="translate(375 507)"/>
</clipPath>
<clipPath id="clip1">
<rect width="53" height="53" fill="white" transform="translate(770)"/>
</clipPath>
<clipPath id="clip2">
<rect width="53" height="53" fill="white" transform="translate(870 395)"/>
</clipPath>
</defs>
</svg>
