<svg width="891" height="669" viewBox="0 0 891 669" fill="none" xmlns="http://www.w3.org/2000/svg">
<g filter="url(#filter0_d)">
<path fill-rule="evenodd" clip-rule="evenodd" d="M822.488 413.008C818.79 461.765 876.721 505.606 864.432 553.27C852.45 599.737 812.087 669.596 758.77 660.13C662.063 642.959 627.755 524.277 535.008 494.779C502.584 484.467 516.099 559.354 485.439 573.198C462.778 583.43 440.503 547.914 415.034 548.952C353.649 551.452 294.339 602.601 236.967 583.319C194.016 568.885 206.14 508.692 186.654 472.199C162.091 426.198 100.126 389.368 106.45 338.89C112.566 290.079 180.593 267.342 217.002 229.995C250.843 195.282 262.842 128.126 314.851 125.118C380.435 121.326 415.375 209.88 480.868 214.735C529.67 218.353 556.285 157.765 603.548 146.52C661.691 132.687 727.861 120.381 782.279 143.024C834.986 164.956 878.811 213.529 886.358 264.199C894.27 317.325 826.543 359.55 822.488 413.008Z" fill="#FFF7B4"/>
<g clip-path="url(#clip0)">
<path fill-rule="evenodd" clip-rule="evenodd" d="M10.7493 179.442C13.114 178.599 15.6023 177.479 17.5212 175.858C19.8002 173.933 20.727 171.452 21.3494 168.842C22.1485 165.488 22.4678 161.915 23.4367 158.556C23.7955 157.308 24.4859 156.837 24.7822 156.627C25.531 156.099 26.2879 155.957 27 156.01C27.8439 156.072 29.0031 156.391 29.7655 157.806C29.8742 158.008 30.0155 158.317 30.1107 158.739C30.18 159.049 30.2248 160.018 30.2982 160.418C30.4817 161.401 30.6352 162.385 30.7793 163.375C31.259 166.667 31.5349 169.464 33.0502 172.489C35.1063 176.596 37.1665 179.109 39.9606 180.222C42.6622 181.298 45.8925 181.096 50.0197 180.252C50.4124 180.157 50.801 180.075 51.1856 180.009C53.0053 179.691 54.7448 180.885 55.1022 182.698C55.4596 184.509 54.3032 186.275 52.4998 186.673C52.1234 186.756 51.7524 186.835 51.3854 186.907C45.8082 188.287 39.3517 193.215 35.5996 197.53C34.4431 198.86 32.7498 202.58 31.0226 204.952C29.7478 206.703 28.3155 207.857 27.1128 208.264C26.3069 208.539 25.6274 208.497 25.0662 208.358C24.2508 208.157 23.5741 207.715 23.0549 207.013C22.7723 206.628 22.5099 206.113 22.3849 205.455C22.3251 205.139 22.3183 204.334 22.3197 203.97C21.9677 202.759 21.5369 201.577 21.223 200.355C20.4742 197.44 19.0051 195.595 17.2602 193.157C15.6281 190.875 13.8751 189.441 11.3052 188.297C10.9709 188.215 8.27336 187.555 7.32072 187.176C5.92913 186.62 5.26592 185.689 5.02538 185.188C4.61633 184.337 4.57424 183.594 4.65577 182.974C4.77672 182.059 5.18714 181.276 5.91555 180.645C6.36673 180.252 7.04078 179.87 7.94314 179.684C8.6403 179.538 10.4898 179.454 10.7493 179.442ZM26.5746 174.691C26.6997 174.969 26.8328 175.249 26.9742 175.532C29.9857 181.547 33.3532 184.905 37.4464 186.534L37.5837 186.587C34.8454 188.62 32.3666 190.893 30.4721 193.071C29.6921 193.968 28.6593 195.831 27.5436 197.742C26.5298 194.446 24.8718 192.117 22.7872 189.202C21.1945 186.977 19.5256 185.303 17.475 183.939C19.0663 183.122 20.5843 182.165 21.9066 181.048C24.1081 179.188 25.5636 177.032 26.5746 174.691Z" fill="#FFF7B4"/>
</g>
<g clip-path="url(#clip1)">
<path fill-rule="evenodd" clip-rule="evenodd" d="M506.749 23.4418C509.114 22.5993 511.602 21.4794 513.521 19.8582C515.8 17.9325 516.727 15.4524 517.349 12.8419C518.148 9.48791 518.468 5.91512 519.437 2.55574C519.795 1.3082 520.486 0.836625 520.782 0.627343C521.531 0.0987022 522.288 -0.0426033 523 0.0103967C523.844 0.0715506 525.003 0.390888 525.766 1.80558C525.874 2.00807 526.016 2.31657 526.111 2.73921C526.18 3.04906 526.225 4.01799 526.298 4.41752C526.482 5.40142 526.635 6.38535 526.779 7.37469C527.259 10.6675 527.535 13.4642 529.05 16.4893C531.106 20.5961 533.167 23.1089 535.961 24.2219C538.662 25.2982 541.892 25.0957 546.02 24.2518C546.412 24.1567 546.801 24.0751 547.186 24.0085C549.005 23.6905 550.745 24.8851 551.102 26.6979C551.46 28.5095 550.303 30.2747 548.5 30.6729C548.123 30.7558 547.752 30.8346 547.385 30.9067C541.808 32.2874 535.352 37.215 531.6 41.5298C530.443 42.8602 528.75 46.5797 527.023 48.9525C525.748 50.7028 524.315 51.8566 523.113 52.2643C522.307 52.5388 521.627 52.4967 521.066 52.3581C520.251 52.157 519.574 51.7153 519.055 51.0127C518.772 50.6281 518.51 50.113 518.385 49.4553C518.325 49.1386 518.318 48.3342 518.32 47.97C517.968 46.7591 517.537 45.5768 517.223 44.3551C516.474 41.4401 515.005 39.5946 513.26 37.1566C511.628 34.8749 509.875 33.4412 507.305 32.2969C506.971 32.2154 504.273 31.5549 503.321 31.1757C501.929 30.6199 501.266 29.689 501.025 29.1875C500.616 28.3368 500.574 27.5935 500.656 26.9738C500.777 26.0592 501.187 25.2765 501.916 24.6445C502.367 24.2518 503.041 23.8699 503.943 23.6837C504.64 23.5383 506.49 23.4541 506.749 23.4418ZM522.575 18.6908C522.7 18.9694 522.833 19.2494 522.974 19.5321C525.986 25.5469 529.353 28.9049 533.446 30.5343L533.584 30.5873C530.845 32.6203 528.367 34.8925 526.472 37.071C525.692 37.9679 524.659 39.8311 523.544 41.7418C522.53 38.4463 520.872 36.117 518.787 33.202C517.194 30.9774 515.526 29.3031 513.475 27.9387C515.066 27.122 516.584 26.1652 517.907 25.0482C520.108 23.1877 521.564 21.0323 522.575 18.6908Z" fill="#FFF7B4"/>
</g>
</g>
<defs>
<filter id="filter0_d" x="0" y="0" width="891" height="669" filterUnits="userSpaceOnUse" color-interpolation-filters="sRGB">
<feFlood flood-opacity="0" result="BackgroundImageFix"/>
<feColorMatrix in="SourceAlpha" type="matrix" values="0 0 0 0 0 0 0 0 0 0 0 0 0 0 0 0 0 0 127 0" result="hardAlpha"/>
<feOffset dy="4"/>
<feGaussianBlur stdDeviation="2"/>
<feComposite in2="hardAlpha" operator="out"/>
<feColorMatrix type="matrix" values="0 0 0 0 0 0 0 0 0 0 0 0 0 0 0 0 0 0 0.25 0"/>
<feBlend mode="normal" in2="BackgroundImageFix" result="effect1_dropShadow"/>
<feBlend mode="normal" in="SourceGraphic" in2="effect1_dropShadow" result="shape"/>
</filter>
<clipPath id="clip0">
<rect width="53" height="53" fill="white" transform="translate(4 156)"/>
</clipPath>
<clipPath id="clip1">
<rect width="53" height="53" fill="white" transform="translate(500)"/>
</clipPath>
</defs>
</svg>
